<svg xmlns="http://www.w3.org/2000/svg" width="36.267" height="35" viewBox="0 0 36.267 35">
  <path id="Path_8" data-name="Path 8" d="M7.242,7.358C-3.562,17.146.334,20.42,2.92,21.664s6.024-.458,10.345-3.83c4.289-3.372,14.274-9.887,16.631-6.646s2.39,9.658-7.693,18.137-12.178,3.5-7.2-.36c4.976-3.9,4.059-6.22,1.7-6.547-2.455-.36-4.583.229-6.809,4.256,0,0-3.372,6.482.949,8.152,2.979,1.146,11.851-2.423,18.333-8.937,4.78-4.812,8.283-10.574,6.809-18.267C34.119-2.463,18.045-2.431,7.242,7.358Z" transform="translate(-0.059 -0.037)" fill="#e11118"/>
</svg>
